<svg width="40" height="40" viewBox="0 0 40 40" fill="none" xmlns="http://www.w3.org/2000/svg">
<path fill-rule="evenodd" clip-rule="evenodd" d="M19.4825 5.1124C19.645 5.03849 19.8214 5.00024 20 5.00024C20.1785 5.00024 20.355 5.03849 20.5175 5.1124L34.2675 11.3624C34.4857 11.4618 34.6707 11.6219 34.8005 11.8236C34.9302 12.0253 34.9992 12.2601 34.9992 12.4999C34.9992 12.7397 34.9302 12.9745 34.8005 13.1762C34.6707 13.3779 34.4857 13.538 34.2675 13.6374L28.52 16.2499L34.2675 18.8624C34.4857 18.9618 34.6707 19.1219 34.8005 19.3236C34.9302 19.5253 34.9992 19.7601 34.9992 19.9999C34.9992 20.2397 34.9302 20.4745 34.8005 20.6762C34.6707 20.8779 34.4857 21.038 34.2675 21.1374L28.52 23.7499L34.2675 26.3624C34.4857 26.4618 34.6707 26.6219 34.8005 26.8236C34.9302 27.0253 34.9992 27.2601 34.9992 27.4999C34.9992 27.7397 34.9302 27.9745 34.8005 28.1762C34.6707 28.3779 34.4857 28.538 34.2675 28.6374L20.5175 34.8874C20.355 34.9613 20.1785 34.9996 20 34.9996C19.8214 34.9996 19.645 34.9613 19.4825 34.8874L5.73247 28.6374C5.51424 28.538 5.32921 28.3779 5.19947 28.1762C5.06972 27.9745 5.00073 27.7397 5.00073 27.4999C5.00073 27.2601 5.06972 27.0253 5.19947 26.8236C5.32921 26.6219 5.51424 26.4618 5.73247 26.3624L11.48 23.7499L5.73247 21.1374C5.51424 21.038 5.32921 20.8779 5.19947 20.6762C5.06972 20.4745 5.00073 20.2397 5.00073 19.9999C5.00073 19.7601 5.06972 19.5253 5.19947 19.3236C5.32921 19.1219 5.51424 18.9618 5.73247 18.8624L11.48 16.2499L5.73247 13.6374C5.51424 13.538 5.32921 13.3779 5.19947 13.1762C5.06972 12.9745 5.00073 12.7397 5.00073 12.4999C5.00073 12.2601 5.06972 12.0253 5.19947 11.8236C5.32921 11.6219 5.51424 11.4618 5.73247 11.3624L19.4825 5.1124ZM14.5 25.1224L9.26997 27.4999L20 32.3749L30.73 27.4999L25.5 25.1249L20.5175 27.3874C20.355 27.4613 20.1785 27.4996 20 27.4996C19.8214 27.4996 19.645 27.4613 19.4825 27.3874L14.5 25.1224ZM9.26997 12.4999L20 17.3749L30.73 12.4999L20 7.6249L9.26997 12.4999Z" fill="white"/>
</svg>
