<svg width="40" height="40" viewBox="0 0 40 40" fill="none" xmlns="http://www.w3.org/2000/svg">
<path d="M35.206 15.038C36.3188 18.4569 36.2476 22.1509 35.0038 25.5242C33.7599 28.8976 31.416 31.7537 28.3501 33.6317C25.2842 35.5097 21.6751 36.3003 18.1049 35.8758C14.5346 35.4513 11.2115 33.8366 8.67137 31.292C6.13129 28.7475 4.52239 25.4215 4.10419 21.8505C3.68599 18.2795 4.48287 14.6718 6.3663 11.6092C8.24972 8.54661 11.1099 6.20774 14.4854 4.96984C17.861 3.73194 21.5551 3.66719 24.972 4.78603L22.878 6.88003C22.7633 6.9947 22.658 7.11803 22.562 7.25003C19.8262 6.69783 16.9853 7.04077 14.4594 8.22813C11.9336 9.41548 9.85696 11.3842 8.53662 13.8431C7.21629 16.3021 6.72237 19.1207 7.12792 21.882C7.53347 24.6434 8.81695 27.2009 10.7885 29.1764C12.7601 31.1519 15.3151 32.4404 18.0757 32.8513C20.8363 33.2623 23.6558 32.7739 26.1174 31.4584C28.5789 30.1429 30.5517 28.0701 31.744 25.5466C32.9363 23.0232 33.2848 20.1829 32.738 17.446C32.8748 17.349 33.0033 17.2406 33.122 17.122L35.206 15.038ZM29.796 18C29.9293 18.648 29.996 19.3147 29.996 20C29.9954 22.0637 29.3564 24.0767 28.1665 25.7628C26.9766 27.449 25.2943 28.7257 23.3501 29.4179C21.406 30.1101 19.2953 30.1838 17.3076 29.629C15.3199 29.0742 13.5525 27.918 12.2478 26.319C10.9432 24.7201 10.1652 22.7566 10.0206 20.698C9.87596 18.6394 10.3718 16.5864 11.44 14.8207C12.5083 13.055 14.0967 11.6631 15.9873 10.8358C17.8779 10.0086 19.9782 9.78647 22 10.2V13.292C20.5073 12.8464 18.9086 12.9115 17.4571 13.4768C16.0055 14.0422 14.784 15.0756 13.986 16.4135C13.1879 17.7513 12.8589 19.3171 13.0511 20.863C13.2432 22.4089 13.9456 23.8465 15.0468 24.9482C16.1481 26.05 17.5854 26.7529 19.1312 26.9457C20.677 27.1385 22.243 26.8102 23.5812 26.0127C24.9193 25.2152 25.9533 23.9942 26.5193 22.5429C27.0852 21.0915 27.151 19.4929 26.706 18H29.796ZM19.996 23C20.4561 23.0003 20.91 22.8947 21.3228 22.6914C21.7356 22.4882 22.096 22.1928 22.3764 21.8279C22.6567 21.4631 22.8494 21.0387 22.9395 20.5876C23.0296 20.1364 23.0147 19.6705 22.896 19.226L26.06 16.06L26.12 16H31C31.1314 16.0003 31.2616 15.9746 31.3831 15.9245C31.5045 15.8744 31.615 15.8008 31.708 15.708L35.708 11.708C35.8482 11.5682 35.9437 11.3898 35.9825 11.1956C36.0212 11.0014 36.0014 10.8 35.9256 10.6171C35.8497 10.4342 35.7213 10.2778 35.5565 10.168C35.3917 10.0581 35.198 9.99967 35 10H30V5.00003C30 4.8024 29.9414 4.60921 29.8316 4.44486C29.7218 4.28052 29.5658 4.15237 29.3833 4.07662C29.2008 4.00087 28.9999 3.9809 28.806 4.01924C28.6121 4.05758 28.434 4.1525 28.294 4.29203L24.294 8.29203C24.2008 8.3849 24.1269 8.49525 24.0765 8.61674C24.026 8.73823 24 8.86848 24 9.00003V13.88L23.94 13.94L20.776 17.102C20.3311 16.9822 19.8646 16.9665 19.4126 17.0561C18.9607 17.1457 18.5355 17.3382 18.1699 17.6186C17.8044 17.8991 17.5083 18.26 17.3047 18.6733C17.1011 19.0866 16.9955 19.5413 16.996 20.002C16.996 20.7977 17.3121 21.5607 17.8747 22.1233C18.4373 22.686 19.2003 23.002 19.996 23.002" fill="white"/>
</svg>
